HIERARCHY
ROOT Hips
{
 OFFSET 0.000000 0.000000 0.000000
 CHANNELS 6 Xposition Yposition Zposition Yrotation Xrotation Zrotation
 JOINT Chest
 {
  OFFSET 0.000000 9.585900 0.002600
  CHANNELS 3 Yrotation Xrotation Zrotation
  JOINT Chest2
  {
   OFFSET 0.000000 9.601200 -0.005300
   CHANNELS 3 Yrotation Xrotation Zrotation
   JOINT Chest3
   {
    OFFSET 0.000000 9.561800 0.000000
    CHANNELS 3 Yrotation Xrotation Zrotation
    JOINT Chest4
    {
     OFFSET 0.000000 9.552100 0.000000
     CHANNELS 3 Yrotation Xrotation Zrotation
     JOINT Neck
     {
      OFFSET 0.000000 14.453000 0.000000
      CHANNELS 3 Yrotation Xrotation Zrotation
      JOINT Head
      {
       OFFSET 0.000000 8.936500 -0.011300
       CHANNELS 3 Yrotation Xrotation Zrotation
       End Site
       {
        OFFSET 0.000000 17.073600 -0.006000
       }
      }
     }
     JOINT RightCollar
     {
      OFFSET -2.921100 9.558500 0.000000
      CHANNELS 3 Yrotation Xrotation Zrotation
      JOINT RightShoulder
      {
       OFFSET -13.519700 0.000000 0.000000
       CHANNELS 3 Yrotation Xrotation Zrotation
       JOINT RightElbow
       {
        OFFSET 0.000000 -29.696600 0.000000
        CHANNELS 3 Yrotation Xrotation Zrotation
        JOINT RightWrist
        {
         OFFSET 0.000000 -24.004700 0.000000
         CHANNELS 3 Yrotation Xrotation Zrotation
         End Site
         {
          OFFSET 0.000000 -17.728500 0.000000
         }
        }
       }
      }
     }
     JOINT LeftCollar
     {
      OFFSET 2.921100 9.558500 0.000000
      CHANNELS 3 Yrotation Xrotation Zrotation
      JOINT LeftShoulder
      {
       OFFSET 13.519700 0.000000 0.000000
       CHANNELS 3 Yrotation Xrotation Zrotation
       JOINT LeftElbow
       {
        OFFSET 0.000000 -29.696600 0.000000
        CHANNELS 3 Yrotation Xrotation Zrotation
        JOINT LeftWrist
        {
         OFFSET 0.000000 -24.004700 0.000000
         CHANNELS 3 Yrotation Xrotation Zrotation
         End Site
         {
          OFFSET 0.000000 -17.728500 0.000000
         }
        }
       }
      }
     }
    }
   }
  }
 }
 JOINT RightHip
 {
  OFFSET -7.771700 -0.012900 -0.001300
  CHANNELS 3 Yrotation Xrotation Zrotation
  JOINT RightKnee
  {
   OFFSET 0.000000 -40.869800 0.001200
   CHANNELS 3 Yrotation Xrotation Zrotation
   JOINT RightAnkle
   {
    OFFSET 0.000000 -39.717900 0.002100
    CHANNELS 3 Yrotation Xrotation Zrotation
    JOINT RightToe
    {
     OFFSET 0.000000 -4.965400 11.033500
     CHANNELS 3 Yrotation Xrotation Zrotation
     End Site
     {
      OFFSET 0.000000 -1.423100 5.872300
     }
    }
   }
  }
 }
 JOINT LeftHip
 {
  OFFSET 7.771700 -0.012900 -0.001300
  CHANNELS 3 Yrotation Xrotation Zrotation
  JOINT LeftKnee
  {
   OFFSET 0.000000 -40.869800 0.001200
   CHANNELS 3 Yrotation Xrotation Zrotation
   JOINT LeftAnkle
   {
    OFFSET 0.000000 -39.717900 0.002100
    CHANNELS 3 Yrotation Xrotation Zrotation
    JOINT LeftToe
    {
     OFFSET 0.000000 -4.965400 11.033500
     CHANNELS 3 Yrotation Xrotation Zrotation
     End Site
     {
      OFFSET 0.000000 -1.423100 5.872300
     }
    }
   }
  }
 }
}
MOTION
Frames: 16
Frame Time: 0.008333
0.000000 85.388000 0.000000 0.000000 -5.767877 0.000000 0.000000 11.653817 0.000000 0.000000 -5.885947 0.000000 0.000000 -0.000000 0.000000 0.000000 -0.000000 0.000000 0.000000 12.528835 0.000000 0.000000 0.711642 0.000000 0.000000 -0.000000 0.000000 0.000000 0.000000 -90.000000 0.000000 -2.309062 0.000000 0.000000 2.309062 0.000000 0.000000 -0.000000 0.000000 0.000000 -0.000000 90.000000 0.000000 -2.309062 0.000000 0.000000 2.309062 0.000000 0.000000 8.520406 0.000000 0.000000 1.905762 0.000000 -0.000000 -4.658285 0.000000 0.000000 -0.000000 0.000000 0.000000 8.520406 0.000000 0.000000 1.905762 0.000000 -0.000000 -4.658285 0.000000 0.000000 -0.000000 0.000000
-24.056293 55.203959 -36.538892 -179.328367 -17.896854 -1.538397 0.084833 15.878902 0.021707 0.020226 1.529907 0.014325 0.019144 2.584827 0.031367 0.090438 14.158214 0.201428 1.156630 12.976788 -2.571313 1.765509 -12.000505 -2.930135 6.392981 -2.999073 1.869204 17.077142 -18.995898 -5.045626 -88.062810 -42.678759 134.580978 -20.805542 0.631925 7.455884 -9.130851 -1.256899 2.863430 0.853643 -23.399559 -3.804330 66.772454 -35.594514 -112.402952 15.562632 -3.976804 -8.763306 0.510667 -57.173117 11.594196 -103.614633 88.065241 -108.557167 -10.175208 -21.990597 14.801920 0.021666 -0.001934 -0.014588 9.542200 -53.699217 -5.559899 113.669389 77.528687 111.305342 -7.070954 -23.768640 1.147606 0.058652 0.232366 0.023013
-24.057977 55.206044 -36.541277 -179.321257 -17.895519 -1.530798 0.122241 15.824961 0.005999 0.014835 1.533382 0.017217 0.025064 2.571733 0.029155 0.139106 14.101680 0.183751 1.133705 13.133035 -2.593580 1.763054 -11.864094 -2.965595 6.490530 -3.114195 1.878757 17.375328 -19.316277 -4.964725 -88.609943 -42.723957 135.258908 -20.637933 0.804298 7.370561 -9.274213 -1.351256 2.995591 0.994698 -23.678529 -4.141196 66.849145 -35.290108 -113.017380 15.597838 -3.593907 -9.019080 0.521363 -57.170723 11.574708 -103.681349 88.065590 -108.620905 -10.191493 -22.007919 14.811276 0.010388 -0.003060 -0.014217 9.543319 -53.695843 -5.573499 113.640007 77.528386 111.274117 -7.072464 -23.762150 1.146125 0.062112 0.227937 0.024058
-24.059243 55.208293 -36.544525 -179.322035 -17.893109 -1.524253 0.140053 15.803332 -0.001895 0.040233 1.508552 0.009561 0.005076 2.585830 0.035744 0.217029 14.018696 0.158881 1.107658 13.301206 -2.626388 1.760856 -11.714554 -3.010378 6.569918 -3.223648 1.882764 17.692899 -19.614209 -4.897211 -89.168237 -42.750940 135.954543 -20.466562 0.968118 7.346175 -9.424076 -1.459570 3.136636 1.065921 -23.916273 -4.457313 67.037829 -35.003639 -113.688310 15.620686 -3.201301 -9.271218 0.548955 -57.170720 11.540577 -103.881986 88.076937 -108.821504 -10.139914 -22.031675 14.812047 0.013843 -0.006185 -0.016856 9.552161 -53.692850 -5.583608 113.641047 77.534302 111.271566 -7.064159 -23.759868 1.149808 0.057113 0.224284 0.023140
-24.059995 55.210494 -36.548672 -179.325028 -17.888764 -1.521491 0.201416 15.758632 -0.004590 0.007253 1.528120 0.019432 0.052139 2.540757 0.020627 0.247244 14.001873 0.156861 1.093196 13.458513 -2.677682 1.757415 -11.551581 -3.061152 6.643050 -3.347429 1.871040 18.035786 -19.886190 -4.844102 -89.734557 -42.762062 136.659127 -20.289394 1.123885 7.384980 -9.565320 -1.605325 3.284951 1.044609 -24.113351 -4.750624 67.368271 -34.779103 -114.409319 15.607836 -2.810071 -9.502342 0.571545 -57.173058 11.520285 -104.081237 88.089010 -109.017639 -10.119559 -22.051434 14.816023 0.016115 -0.008364 -0.017089 9.555969 -53.694083 -5.587915 113.651536 77.535367 111.280948 -7.056475 -23.759943 1.149682 0.053445 0.220101 0.021493
-24.062440 55.211989 -36.552416 -179.323427 -17.873574 -1.511657 0.267726 15.708246 -0.016462 0.013589 1.518931 0.017705 0.062763 2.526056 0.017799 0.282794 13.985567 0.154376 1.075531 13.627535 -2.731808 1.751329 -11.376117 -3.114346 6.688082 -3.461595 1.863279 18.400218 -20.125839 -4.805549 -90.299850 -42.755437 137.359155 -20.097104 1.286095 7.475267 -9.714635 -1.760656 3.451909 0.926683 -24.272202 -5.018450 67.851308 -34.652930 -115.173533 15.555071 -2.440516 -9.697501 0.608166 -57.188926 11.483303 -104.270873 88.087257 -109.190687 -10.146801 -22.068427 14.824500 0.025455 0.000370 -0.016704 9.564833 -53.704456 -5.607821 113.659948 77.535720 111.286445 -7.051817 -23.760302 1.148581 0.053355 0.216810 0.021603
-24.064590 55.213204 -36.557491 -179.322516 -17.858211 -1.505362 0.330676 15.667546 -0.028049 0.034733 1.502972 0.011675 0.058356 2.522908 0.020081 0.340284 13.955780 0.146145 1.056862 13.809611 -2.787600 1.744612 -11.186647 -3.169379 6.706872 -3.558230 1.861603 18.765233 -20.331745 -4.778031 -90.856587 -42.731372 138.048721 -19.900382 1.470771 7.614086 -9.864179 -1.915552 3.637946 0.725137 -24.399430 -5.260491 68.473933 -34.639577 -115.971665 15.476038 -2.117023 -9.851402 0.633532 -57.203279 11.458189 -104.481069 88.088445 -109.390486 -10.164902 -22.088156 14.832796 -0.018448 0.004437 -0.020864 9.567541 -53.716567 -5.618972 113.679893 77.538957 111.303253 -7.053731 -23.758494 1.151549 0.057312 0.212260 0.020975
-24.066619 55.213652 -36.562678 -179.318372 -17.834981 -1.502739 0.392538 15.616963 -0.038424 0.040948 1.494098 0.010221 0.068891 2.508494 0.017741 0.399187 13.919143 0.139266 1.042865 14.009437 -2.849114 1.744273 -10.978130 -3.231809 6.708807 -3.621006 1.857696 19.116763 -20.503862 -4.758000 -91.402831 -42.700831 138.720773 -19.714942 1.675413 7.800143 -9.998597 -2.049569 3.829073 0.457813 -24.510888 -5.471830 69.195266 -34.726585 -116.780934 15.382788 -1.860133 -9.965361 0.656542 -57.226077 11.435400 -104.640021 88.083700 -109.534763 -10.187995 -22.107194 14.841571 0.014459 -0.003411 -0.010777 9.564493 -53.737745 -5.628219 113.699598 77.541335 111.318875 -7.049080 -23.758736 1.151948 0.049680 0.210606 0.020054
-24.069549 55.213804 -36.569630 -179.307107 -17.814596 -1.498794 0.437821 15.562502 -0.049156 0.046211 1.482743 0.009266 0.077825 2.490143 0.016183 0.450200 13.872477 0.135902 1.041346 14.229997 -2.921486 1.759894 -10.747087 -3.309094 6.714592 -3.633727 1.833961 19.451912 -20.644282 -4.744796 -91.938179 -42.675445 139.364073 -19.538962 1.880226 8.026563 -10.106143 -2.144674 4.006320 0.155507 -24.618192 -5.648021 69.962977 -34.879712 -117.576354 15.287026 -1.664102 -10.048468 0.680429 -57.244905 11.406227 -104.833252 88.070942 -109.714963 -10.206428 -22.129366 14.853224 0.011371 0.003220 -0.011697 9.558772 -53.755626 -5.643856 113.705959 77.538863 111.320666 -7.046541 -23.755929 1.153714 0.044119 0.207637 0.017839
-24.072341 55.213707 -36.578425 -179.305780 -17.798725 -1.494145 0.473185 15.502015 -0.050383 0.049432 1.469238 0.009128 0.083203 2.468313 0.016024 0.482726 13.817213 0.138513 1.061174 14.472331 -3.009196 1.801880 -10.491641 -3.408456 6.751303 -3.588624 1.770350 19.763358 -20.754936 -4.736865 -92.453285 -42.658891 139.964905 -19.365757 2.068395 8.294619 -10.170330 -2.197610 4.150045 -0.143437 -24.716752 -5.791733 70.714692 -35.052857 -118.335230 15.197877 -1.507522 -10.118031 0.699223 -57.258507 11.386042 -105.129528 88.068352 -110.007346 -10.198012 -22.153048 14.860908 -0.005241 0.004203 -0.016567 9.559595 -53.768100 -5.656062 113.741467 77.535165 111.350675 -7.037481 -23.762271 1.157485 0.034786 0.204912 0.013403
-24.074324 55.212663 -36.586713 -179.306226 -17.773594 -1.494545 0.485768 15.451754 -0.045875 0.050380 1.462036 0.009312 0.087323 2.433124 0.019908 0.494403 13.742079 0.155450 1.103859 14.729488 -3.113441 1.872206 -10.218589 -3.531474 6.824647 -3.500365 1.657302 20.038491 -20.832816 -4.727580 -92.925349 -42.649888 140.510912 -19.189942 2.241739 8.602045 -10.182159 -2.230801 4.250731 -0.414519 -24.790303 -5.908499 71.387187 -35.203766 -119.039269 15.120121 -1.371630 -10.179498 0.709985 -57.282571 11.376438 -105.417171 88.066172 -110.293331 -10.175787 -22.171645 14.866372 -0.014789 -0.005745 -0.019116 9.560739 -53.791102 -5.662504 113.786957 77.531798 111.393619 -7.032195 -23.773067 1.159323 0.030212 0.205051 0.012050
-24.076140 55.211567 -36.597322 -179.311590 -17.758651 -1.494727 0.495507 15.409361 -0.037147 0.047686 1.418840 0.027146 0.087056 2.480154 -0.000014 0.493203 13.645226 0.191681 1.160919 14.987624 -3.226419 1.960066 -9.942711 -3.667690 6.916793 -3.401741 1.503428 20.261329 -20.871823 -4.701311 -93.334806 -42.653581 140.998462 -19.005160 2.407251 8.923346 -10.159125 -2.275125 4.321848 -0.647613 -24.821907 -6.000905 71.936722 -35.301794 -119.674176 15.054651 -1.237559 -10.227371 0.736092 -57.298181 11.362969 -105.826067 88.071288 -110.697899 -10.159686 -22.186555 14.872025 -0.011656 -0.018392 -0.017240 9.563300 -53.804341 -5.663547 113.867267 77.526338 111.469598 -7.023921 -23.789010 1.163644 0.023644 0.201958 0.008819
-24.079004 55.208924 -36.605513 -179.303107 -17.725726 -1.492121 0.483082 15.334865 -0.022107 0.046506 1.409628 0.033757 0.085809 2.458562 -0.001857 0.488333 13.629557 0.210390 1.221755 15.243090 -3.337438 2.051630 -9.668320 -3.803202 7.009741 -3.310116 1.327992 20.418763 -20.865522 -4.646256 -93.679884 -42.684292 141.434108 -18.814014 2.558599 9.217586 -10.126889 -2.332373 4.388389 -0.841898 -24.806328 -6.076281 72.343436 -35.337993 -120.218235 15.006647 -1.097178 -10.272584 0.763774 -57.334264 11.333460 -106.419844 88.080716 -111.281487 -10.171184 -22.197740 14.874083 0.006288 -0.027783 -0.008608 9.563906 -53.831243 -5.678476 113.883359 77.526727 111.483234 -7.029196 -23.801861 1.168708 0.029535 0.208740 0.007245
-24.080342 55.206879 -36.617734 -179.302616 -17.718237 -1.495288 0.477045 15.300491 0.000462 0.059717 1.409408 0.032456 0.069305 2.436904 0.005345 0.506536 13.611774 0.226069 1.276513 15.500125 -3.439633 2.134874 -9.391296 -3.928175 7.082063 -3.219903 1.148231 20.513086 -20.815249 -4.563512 -93.968136 -42.749449 141.822368 -18.621139 2.678061 9.449124 -10.107413 -2.383768 4.468145 -1.005930 -24.746138 -6.145283 72.608081 -35.332989 -120.651893 14.988572 -0.972469 -10.332147 0.831081 -57.346556 11.288983 -106.849417 88.078090 -111.676983 -10.193069 -22.209807 14.880817 0.025228 -0.035122 0.000882 9.556525 -53.835043 -5.676035 113.933096 77.518981 111.532909 -7.024202 -23.818730 1.173287 0.027468 0.210667 0.000934
-24.080282 55.205212 -36.633047 -179.321504 -17.733480 -1.499349 0.525776 15.281664 0.052850 0.049393 1.422612 0.017749 0.059633 2.419713 0.007929 0.508396 13.620103 0.224660 1.349459 15.735741 -3.515666 2.209291 -9.112934 -4.043093 7.145722 -3.144636 0.978580 20.557859 -20.733457 -4.459941 -94.207192 -42.842142 142.157014 -18.416941 2.749789 9.593706 -10.086850 -2.440491 4.579354 -1.145819 -24.642010 -6.212206 72.742107 -35.309450 -120.961184 15.000679 -0.893887 -10.410508 0.878193 -57.333933 11.280455 -107.162931 88.068781 -111.964775 -10.220859 -22.218508 14.883779 0.026513 -0.037976 0.005326 9.544564 -53.817376 -5.650077 114.074987 77.512441 111.671277 -7.006866 -23.852168 1.174165 0.029647 0.211438 -0.003719
-24.083168 55.201157 -36.642729 -179.311863 -17.718943 -1.491777 0.524356 15.257229 0.070282 0.049609 1.419133 0.020286 0.083705 2.387433 0.034899 0.481967 13.640986 0.190205 1.414556 15.979559 -3.575252 2.288673 -8.836982 -4.163004 7.190685 -3.044188 0.803746 20.571520 -20.634003 -4.345480 -94.397689 -42.947409 142.421925 -18.175199 2.764635 9.635053 -10.078036 -2.473658 4.693118 -1.254434 -24.494848 -6.280459 72.760257 -35.277352 -121.139546 15.038690 -0.873810 -10.505982 0.926491 -57.358057 11.238851 -107.621815 88.051014 -112.396107 -10.272498 -22.214158 14.878020 0.051934 -0.045891 0.026389 9.533363 -53.831937 -5.664115 114.110610 77.503812 111.697180 -7.000026 -23.852374 1.180578 0.022671 0.212639 -0.005829
